<mxfile host="Electron" agent="Mozilla/5.0 (Windows NT 10.0; Win64; x64) AppleWebKit/537.36 (KHTML, like Gecko) draw.io/28.1.2 Chrome/138.0.7204.243 Electron/37.4.0 Safari/537.36" version="28.1.2">
  <diagram name="Page-1" id="W9_G9vZunfboomWLxtPq">
    <mxGraphModel dx="1765" dy="746" grid="0" gridSize="10" guides="1" tooltips="0" connect="1" arrows="1" fold="1" page="1" pageScale="1" pageWidth="850" pageHeight="1100" math="0" shadow="0">
      <root>
        <mxCell id="0" />
        <mxCell id="1" parent="0" />
        <mxCell id="70RuwSupTqq13m1NtKx2-23" value="" style="group" vertex="1" connectable="0" parent="1">
          <mxGeometry x="650" y="140" width="120" height="60" as="geometry" />
        </mxCell>
        <mxCell id="70RuwSupTqq13m1NtKx2-7" value="" style="rounded=0;whiteSpace=wrap;html=1;" vertex="1" parent="70RuwSupTqq13m1NtKx2-23">
          <mxGeometry width="120" height="60" as="geometry" />
        </mxCell>
        <mxCell id="70RuwSupTqq13m1NtKx2-8" value="Roles" style="text;html=1;align=center;verticalAlign=middle;whiteSpace=wrap;rounded=0;" vertex="1" parent="70RuwSupTqq13m1NtKx2-23">
          <mxGeometry x="30" y="15" width="60" height="30" as="geometry" />
        </mxCell>
        <mxCell id="70RuwSupTqq13m1NtKx2-24" value="" style="group" vertex="1" connectable="0" parent="1">
          <mxGeometry x="365" y="140" width="120" height="60" as="geometry" />
        </mxCell>
        <mxCell id="70RuwSupTqq13m1NtKx2-25" value="" style="rounded=0;whiteSpace=wrap;html=1;" vertex="1" parent="70RuwSupTqq13m1NtKx2-24">
          <mxGeometry width="120" height="60" as="geometry" />
        </mxCell>
        <mxCell id="70RuwSupTqq13m1NtKx2-26" value="Courses" style="text;html=1;align=center;verticalAlign=middle;whiteSpace=wrap;rounded=0;" vertex="1" parent="70RuwSupTqq13m1NtKx2-24">
          <mxGeometry x="30" y="15" width="60" height="30" as="geometry" />
        </mxCell>
        <mxCell id="70RuwSupTqq13m1NtKx2-28" value="" style="group" vertex="1" connectable="0" parent="1">
          <mxGeometry x="80" y="100" width="120" height="60" as="geometry" />
        </mxCell>
        <mxCell id="70RuwSupTqq13m1NtKx2-29" value="" style="rounded=0;whiteSpace=wrap;html=1;" vertex="1" parent="70RuwSupTqq13m1NtKx2-28">
          <mxGeometry width="120" height="60" as="geometry" />
        </mxCell>
        <mxCell id="70RuwSupTqq13m1NtKx2-30" value="Comments" style="text;html=1;align=center;verticalAlign=middle;whiteSpace=wrap;rounded=0;" vertex="1" parent="70RuwSupTqq13m1NtKx2-28">
          <mxGeometry x="30" y="15" width="60" height="30" as="geometry" />
        </mxCell>
        <mxCell id="70RuwSupTqq13m1NtKx2-78" style="edgeStyle=orthogonalEdgeStyle;rounded=0;orthogonalLoop=1;jettySize=auto;html=1;entryX=0;entryY=0.5;entryDx=0;entryDy=0;" edge="1" parent="1" source="70RuwSupTqq13m1NtKx2-34" target="70RuwSupTqq13m1NtKx2-81">
          <mxGeometry relative="1" as="geometry">
            <mxPoint x="890" y="390" as="targetPoint" />
          </mxGeometry>
        </mxCell>
        <mxCell id="70RuwSupTqq13m1NtKx2-80" style="edgeStyle=orthogonalEdgeStyle;rounded=0;orthogonalLoop=1;jettySize=auto;html=1;exitX=1;exitY=0.25;exitDx=0;exitDy=0;entryX=0.5;entryY=1;entryDx=0;entryDy=0;" edge="1" parent="1" source="70RuwSupTqq13m1NtKx2-34" target="70RuwSupTqq13m1NtKx2-79">
          <mxGeometry relative="1" as="geometry" />
        </mxCell>
        <mxCell id="70RuwSupTqq13m1NtKx2-34" value="&lt;div&gt;Owner&lt;/div&gt;Admin&lt;div&gt;instructors&lt;/div&gt;&lt;div&gt;&lt;div&gt;Users&lt;/div&gt;&lt;div&gt;Guest&lt;/div&gt;&lt;/div&gt;" style="rounded=0;whiteSpace=wrap;html=1;" vertex="1" parent="1">
          <mxGeometry x="650" y="280" width="120" height="100" as="geometry" />
        </mxCell>
        <mxCell id="70RuwSupTqq13m1NtKx2-35" value="" style="edgeStyle=orthogonalEdgeStyle;rounded=0;orthogonalLoop=1;jettySize=auto;html=1;" edge="1" parent="1" source="70RuwSupTqq13m1NtKx2-7" target="70RuwSupTqq13m1NtKx2-34">
          <mxGeometry relative="1" as="geometry" />
        </mxCell>
        <mxCell id="70RuwSupTqq13m1NtKx2-36" value="&lt;h1&gt;Platform Courses&lt;/h1&gt;" style="ellipse;whiteSpace=wrap;html=1;fillColor=#ffe6cc;strokeColor=#d79b00;" vertex="1" parent="1">
          <mxGeometry x="365" y="20" width="120" height="80" as="geometry" />
        </mxCell>
        <mxCell id="70RuwSupTqq13m1NtKx2-44" style="edgeStyle=orthogonalEdgeStyle;rounded=0;orthogonalLoop=1;jettySize=auto;html=1;entryX=1;entryY=0.5;entryDx=0;entryDy=0;" edge="1" parent="1" source="70RuwSupTqq13m1NtKx2-38" target="70RuwSupTqq13m1NtKx2-29">
          <mxGeometry relative="1" as="geometry" />
        </mxCell>
        <mxCell id="70RuwSupTqq13m1NtKx2-38" value="Links&lt;div&gt;imgs&lt;/div&gt;&lt;div&gt;videos&lt;/div&gt;&lt;div&gt;Stars&lt;/div&gt;" style="ellipse;whiteSpace=wrap;html=1;" vertex="1" parent="1">
          <mxGeometry x="357" y="240" width="135" height="130" as="geometry" />
        </mxCell>
        <mxCell id="70RuwSupTqq13m1NtKx2-39" value="" style="edgeStyle=orthogonalEdgeStyle;rounded=0;orthogonalLoop=1;jettySize=auto;html=1;" edge="1" parent="1" source="70RuwSupTqq13m1NtKx2-26" target="70RuwSupTqq13m1NtKx2-38">
          <mxGeometry relative="1" as="geometry" />
        </mxCell>
        <mxCell id="70RuwSupTqq13m1NtKx2-41" value="Username&lt;div&gt;Imgs&lt;/div&gt;" style="rounded=1;whiteSpace=wrap;html=1;" vertex="1" parent="1">
          <mxGeometry x="70" y="260" width="120" height="60" as="geometry" />
        </mxCell>
        <mxCell id="70RuwSupTqq13m1NtKx2-45" style="edgeStyle=orthogonalEdgeStyle;rounded=0;orthogonalLoop=1;jettySize=auto;html=1;entryX=0.585;entryY=0.05;entryDx=0;entryDy=0;entryPerimeter=0;" edge="1" parent="1" source="70RuwSupTqq13m1NtKx2-29" target="70RuwSupTqq13m1NtKx2-41">
          <mxGeometry relative="1" as="geometry" />
        </mxCell>
        <mxCell id="70RuwSupTqq13m1NtKx2-60" style="edgeStyle=orthogonalEdgeStyle;rounded=0;orthogonalLoop=1;jettySize=auto;html=1;entryX=0.5;entryY=0;entryDx=0;entryDy=0;" edge="1" parent="1" source="70RuwSupTqq13m1NtKx2-46" target="70RuwSupTqq13m1NtKx2-58">
          <mxGeometry relative="1" as="geometry" />
        </mxCell>
        <mxCell id="70RuwSupTqq13m1NtKx2-62" style="edgeStyle=orthogonalEdgeStyle;rounded=0;orthogonalLoop=1;jettySize=auto;html=1;entryX=0.5;entryY=0;entryDx=0;entryDy=0;" edge="1" parent="1" source="70RuwSupTqq13m1NtKx2-46" target="70RuwSupTqq13m1NtKx2-61">
          <mxGeometry relative="1" as="geometry">
            <Array as="points">
              <mxPoint x="700" y="540" />
              <mxPoint x="620" y="540" />
            </Array>
          </mxGeometry>
        </mxCell>
        <mxCell id="70RuwSupTqq13m1NtKx2-46" value="Payment" style="rounded=0;whiteSpace=wrap;html=1;" vertex="1" parent="1">
          <mxGeometry x="640" y="450" width="120" height="60" as="geometry" />
        </mxCell>
        <mxCell id="70RuwSupTqq13m1NtKx2-50" style="edgeStyle=orthogonalEdgeStyle;rounded=0;orthogonalLoop=1;jettySize=auto;html=1;entryX=1;entryY=0.5;entryDx=0;entryDy=0;" edge="1" parent="1" source="70RuwSupTqq13m1NtKx2-47" target="70RuwSupTqq13m1NtKx2-49">
          <mxGeometry relative="1" as="geometry" />
        </mxCell>
        <mxCell id="70RuwSupTqq13m1NtKx2-47" value="Payed API" style="ellipse;whiteSpace=wrap;html=1;" vertex="1" parent="1">
          <mxGeometry x="400" y="440" width="120" height="80" as="geometry" />
        </mxCell>
        <mxCell id="70RuwSupTqq13m1NtKx2-52" value="" style="edgeStyle=orthogonalEdgeStyle;rounded=0;orthogonalLoop=1;jettySize=auto;html=1;entryX=1;entryY=0.5;entryDx=0;entryDy=0;" edge="1" parent="1" source="70RuwSupTqq13m1NtKx2-49" target="70RuwSupTqq13m1NtKx2-53">
          <mxGeometry relative="1" as="geometry">
            <mxPoint x="149.99999999999977" y="500.0000000000002" as="targetPoint" />
          </mxGeometry>
        </mxCell>
        <mxCell id="70RuwSupTqq13m1NtKx2-49" value="Email" style="ellipse;whiteSpace=wrap;html=1;" vertex="1" parent="1">
          <mxGeometry x="230" y="460" width="80" height="80" as="geometry" />
        </mxCell>
        <mxCell id="70RuwSupTqq13m1NtKx2-53" value="Confirm Login, register&lt;br&gt;OTP" style="rounded=0;whiteSpace=wrap;html=1;" vertex="1" parent="1">
          <mxGeometry x="20" y="480" width="120" height="60" as="geometry" />
        </mxCell>
        <mxCell id="70RuwSupTqq13m1NtKx2-55" style="edgeStyle=orthogonalEdgeStyle;rounded=0;orthogonalLoop=1;jettySize=auto;html=1;exitX=1;exitY=0.5;exitDx=0;exitDy=0;entryX=0;entryY=0.5;entryDx=0;entryDy=0;" edge="1" parent="1" source="70RuwSupTqq13m1NtKx2-25" target="70RuwSupTqq13m1NtKx2-46">
          <mxGeometry relative="1" as="geometry" />
        </mxCell>
        <mxCell id="70RuwSupTqq13m1NtKx2-58" value="&lt;div&gt;Offers&lt;/div&gt;Free Coupon" style="ellipse;whiteSpace=wrap;html=1;" vertex="1" parent="1">
          <mxGeometry x="722" y="570" width="120" height="80" as="geometry" />
        </mxCell>
        <mxCell id="70RuwSupTqq13m1NtKx2-69" value="" style="edgeStyle=orthogonalEdgeStyle;rounded=0;orthogonalLoop=1;jettySize=auto;html=1;" edge="1" parent="1" source="70RuwSupTqq13m1NtKx2-61" target="70RuwSupTqq13m1NtKx2-68">
          <mxGeometry relative="1" as="geometry" />
        </mxCell>
        <mxCell id="70RuwSupTqq13m1NtKx2-70" value="In Future" style="edgeLabel;html=1;align=center;verticalAlign=middle;resizable=0;points=[];" vertex="1" connectable="0" parent="70RuwSupTqq13m1NtKx2-69">
          <mxGeometry x="-0.0314" y="-3" relative="1" as="geometry">
            <mxPoint as="offset" />
          </mxGeometry>
        </mxCell>
        <mxCell id="70RuwSupTqq13m1NtKx2-61" value="Instapay" style="ellipse;whiteSpace=wrap;html=1;" vertex="1" parent="1">
          <mxGeometry x="560" y="570" width="120" height="80" as="geometry" />
        </mxCell>
        <mxCell id="70RuwSupTqq13m1NtKx2-68" value="PayPal" style="shape=parallelogram;perimeter=parallelogramPerimeter;whiteSpace=wrap;html=1;fixedSize=1;" vertex="1" parent="1">
          <mxGeometry x="360" y="580" width="120" height="60" as="geometry" />
        </mxCell>
        <mxCell id="70RuwSupTqq13m1NtKx2-79" value="&lt;div&gt;Owner Plan&lt;/div&gt;&lt;div&gt;Status of courses, payments, users&lt;/div&gt;&lt;div&gt;Full power&lt;/div&gt;" style="rounded=0;whiteSpace=wrap;html=1;" vertex="1" parent="1">
          <mxGeometry x="810" y="220" width="120" height="60" as="geometry" />
        </mxCell>
        <mxCell id="70RuwSupTqq13m1NtKx2-81" value="Instructors:&lt;div&gt;able to see&amp;nbsp;&lt;/div&gt;&lt;div&gt;1. who had see videos ?&lt;/div&gt;&lt;div&gt;2. who had watch&amp;nbsp; his course ?&lt;/div&gt;&lt;div&gt;3. Able to put his Plan, description&lt;/div&gt;&lt;div&gt;&lt;b&gt;Extra:&amp;nbsp;&lt;/b&gt;&lt;/div&gt;&lt;div&gt;&lt;u style=&quot;background-color: rgb(255, 218, 38);&quot;&gt;He can give Stars, Bonus from tasks that appear in his certifcation&lt;/u&gt;&lt;/div&gt;" style="rounded=0;whiteSpace=wrap;html=1;" vertex="1" parent="1">
          <mxGeometry x="850" y="340" width="200" height="120" as="geometry" />
        </mxCell>
      </root>
    </mxGraphModel>
  </diagram>
</mxfile>
